<svg width="24" height="24" viewBox="0 0 24 24" fill="none" xmlns="http://www.w3.org/2000/svg">
<path fill-rule="evenodd" clip-rule="evenodd" d="M0.5 3C0.5 2.44772 0.947715 2 1.5 2H3.25C3.70887 2 4.10885 2.3123 4.22014 2.75746L4.78078 5H22C22.3079 5 22.5987 5.14187 22.7882 5.38459C22.9777 5.6273 23.0448 5.94379 22.9701 6.24254L20.4701 16.2425C20.3589 16.6877 19.9589 17 19.5 17H6.5C6.04113 17 5.64115 16.6877 5.52986 16.2425L2.46922 4H1.5C0.947715 4 0.5 3.55228 0.5 3ZM6.5 17C5.11929 17 4 18.1193 4 19.5C4 20.8807 5.11929 22 6.5 22C7.88071 22 9 20.8807 9 19.5C9 18.1193 7.88071 17 6.5 17ZM19.5 17C18.1193 17 17 18.1193 17 19.5C17 20.8807 18.1193 22 19.5 22C20.8807 22 22 20.8807 22 19.5C22 18.1193 20.8807 17 19.5 17ZM5.28078 7L7.28078 15H18.7192L20.7192 7H5.28078ZM10 11C10 10.4477 10.4477 10 11 10H15C15.5523 10 16 10.4477 16 11C16 11.5523 15.5523 12 15 12H11C10.4477 12 10 11.5523 10 11ZM6.5 19C6.22386 19 6 19.2239 6 19.5C6 19.7761 6.22386 20 6.5 20C6.77614 20 7 19.7761 7 19.5C7 19.2239 6.77614 19 6.5 19ZM19.5 19C19.2239 19 19 19.2239 19 19.5C19 19.7761 19.2239 20 19.5 20C19.7761 20 20 19.7761 20 19.5C20 19.2239 19.7761 19 19.5 19Z" fill="#292929"/>
</svg>
