<svg width="60" height="60" viewBox="0 0 60 60" fill="none" xmlns="http://www.w3.org/2000/svg">
<path fill-rule="evenodd" clip-rule="evenodd" d="M9.25854 9.49425C14.564 4.15927 21.9009 0.854736 30.0003 0.854736C38.0997 0.854736 45.4367 4.15927 50.7421 9.49426L48.8565 11.3904L50.7421 9.49427C56.0475 14.8293 59.3337 22.2073 59.3337 30.3519C59.3337 38.4966 56.0475 45.8746 50.7421 51.2096C45.4367 56.5446 38.0997 59.8492 30.0003 59.8492C21.9009 59.8492 14.564 56.5446 9.25853 51.2096L11.1441 49.3134L9.25851 51.2096C3.95316 45.8745 0.666992 38.4966 0.666992 30.3519C0.666992 22.2073 3.95317 14.8293 9.2585 9.49428L9.25854 9.49425ZM30.0003 6.21786C23.3722 6.21786 17.3759 8.91623 13.0297 13.2866C8.68367 17.657 6.00033 23.6868 6.00033 30.3519C6.00033 37.0171 8.6837 43.0469 13.0298 47.4173C17.3759 51.7876 23.3722 54.486 30.0003 54.486C36.6284 54.486 42.6248 51.7876 46.9708 47.4173C51.3169 43.0469 54.0003 37.0171 54.0003 30.3519C54.0003 23.6868 51.3169 17.657 46.9708 13.2866C42.6248 8.91623 36.6284 6.21786 30.0003 6.21786ZM45.2193 20.4111C46.2607 21.4583 46.2607 23.1562 45.2193 24.2034L29.2193 40.2928C28.1779 41.34 26.4894 41.34 25.448 40.2928L17.448 32.2481C16.4066 31.2009 16.4066 29.503 17.448 28.4558C18.4894 27.4086 20.1779 27.4086 21.2193 28.4558L27.3337 34.6043L41.448 20.4111C42.4894 19.3639 44.1779 19.3639 45.2193 20.4111Z" fill="#1EB536"/>
</svg>
