<svg width="14" height="14" viewBox="0 0 14 14" fill="none" xmlns="http://www.w3.org/2000/svg">
<path fill-rule="evenodd" clip-rule="evenodd" d="M4.37516 1.75016C4.21407 1.75016 4.0835 1.88074 4.0835 2.04183V2.91683H9.62516C10.4306 2.91683 11.0835 3.56975 11.0835 4.37516V9.91683H11.9585C12.1196 9.91683 12.2502 9.78626 12.2502 9.62516V2.04183C12.2502 1.88074 12.1196 1.75016 11.9585 1.75016H4.37516ZM11.0835 11.0835H11.9585C12.7639 11.0835 13.4168 10.4306 13.4168 9.62516V2.04183C13.4168 1.23642 12.7639 0.583496 11.9585 0.583496H4.37516C3.56973 0.583496 2.91683 1.23642 2.91683 2.04183V2.91683H2.04183C1.23641 2.91683 0.583496 3.56975 0.583496 4.37516V11.9585C0.583496 12.7639 1.23641 13.4168 2.04183 13.4168H9.62516C10.4306 13.4168 11.0835 12.7639 11.0835 11.9585V11.0835ZM2.04183 4.0835C1.88075 4.0835 1.75016 4.21408 1.75016 4.37516V11.9585C1.75016 12.1196 1.88075 12.2502 2.04183 12.2502H9.62516C9.78625 12.2502 9.91683 12.1196 9.91683 11.9585V4.37516C9.91683 4.21408 9.78625 4.0835 9.62516 4.0835H2.04183Z" fill="#2D368B"/>
</svg>
