<svg width="18" height="18" viewBox="0 0 18 18" fill="none" xmlns="http://www.w3.org/2000/svg">
<path d="M7.5 6.75C7.91421 6.75 8.25 7.08579 8.25 7.5V12.375C8.25 12.7892 7.91421 13.125 7.5 13.125C7.08579 13.125 6.75 12.7892 6.75 12.375V7.5C6.75 7.08579 7.08579 6.75 7.5 6.75Z" fill="#ED1C24"/>
<path d="M11.25 7.5C11.25 7.08579 10.9142 6.75 10.5 6.75C10.0858 6.75 9.75 7.08579 9.75 7.5V12.375C9.75 12.7892 10.0858 13.125 10.5 13.125C10.9142 13.125 11.25 12.7892 11.25 12.375V7.5Z" fill="#ED1C24"/>
<path fill-rule="evenodd" clip-rule="evenodd" d="M7.23337 0.75C6.95948 0.75 6.70736 0.899308 6.5757 1.13949L5.55583 3H1.5C1.08579 3 0.75 3.33579 0.75 3.75C0.75 4.16421 1.08579 4.5 1.5 4.5H2.625V16.5C2.625 16.9142 2.96079 17.25 3.375 17.25H14.625C15.0392 17.25 15.375 16.9142 15.375 16.5V4.5H16.5C16.9142 4.5 17.25 4.16421 17.25 3.75C17.25 3.33579 16.9142 3 16.5 3H12.4485L11.4521 1.1451C11.3214 0.901791 11.0676 0.75 10.7914 0.75H7.23337ZM10.7458 3L10.3429 2.25H7.67754L7.26642 3H10.7458ZM4.125 4.5V15.75H13.875V4.5H4.125Z" fill="#ED1C24"/>
</svg>
