<svg width="24" height="24" viewBox="0 0 24 24" fill="none" xmlns="http://www.w3.org/2000/svg">
<path d="M11.4701 5.74277C11.6041 5.20698 11.2783 4.66404 10.7425 4.53009C10.2067 4.39615 9.66381 4.72191 9.52987 5.2577L8.52987 9.2577C8.39592 9.7935 8.72168 10.3364 9.25747 10.4704C9.79327 10.6043 10.3362 10.2786 10.4701 9.74277L11.4701 5.74277Z" fill="#292929"/>
<path fill-rule="evenodd" clip-rule="evenodd" d="M8.00001 1C7.54494 1 7.14726 1.30725 7.03239 1.74758L4.03239 13.2476C3.95421 13.5473 4.01931 13.8663 4.20867 14.1114C4.39804 14.3565 4.69028 14.5 5.00001 14.5H7.73741L6.02659 21.771C5.92266 22.2127 6.12918 22.669 6.52962 22.8825C6.93006 23.0959 7.42403 23.013 7.7328 22.6805L20.7328 8.68045C21.0034 8.38899 21.0756 7.96486 20.9166 7.60028C20.7577 7.2357 20.3977 7 20 7H15.2808L16.4702 2.24254C16.5448 1.94379 16.4777 1.6273 16.2882 1.38459C16.0987 1.14187 15.8079 1 15.5 1H8.00001ZM6.29435 12.5L8.77261 3H14.2192L13.0299 7.75746C12.9552 8.05621 13.0223 8.3727 13.2118 8.61541C13.4013 8.85813 13.6921 9 14 9H17.7068L8.83913 18.5498L9.97343 13.729C10.0434 13.4317 9.9736 13.1186 9.78392 12.8791C9.59425 12.6396 9.30551 12.5 9.00001 12.5H6.29435Z" fill="#292929"/>
</svg>
