<svg width="17" height="18" viewBox="0 0 17 18" fill="none" xmlns="http://www.w3.org/2000/svg">
<path fill-rule="evenodd" clip-rule="evenodd" d="M2.125 2.25C1.91789 2.25 1.75 2.41789 1.75 2.625V15.375C1.75 15.5821 1.91789 15.75 2.125 15.75H14.875C15.0821 15.75 15.25 15.5821 15.25 15.375V2.625C15.25 2.41789 15.0821 2.25 14.875 2.25H2.125ZM0.25 2.625C0.25 1.58947 1.08947 0.75 2.125 0.75H14.875C15.9105 0.75 16.75 1.58947 16.75 2.625V15.375C16.75 16.4105 15.9105 17.25 14.875 17.25H2.125C1.08947 17.25 0.25 16.4105 0.25 15.375V2.625ZM3.25 4.5C3.25 4.08579 3.58579 3.75 4 3.75H7C7.41421 3.75 7.75 4.08579 7.75 4.5V7.5C7.75 7.91421 7.41421 8.25 7 8.25H4C3.58579 8.25 3.25 7.91421 3.25 7.5V4.5ZM4.75 5.25V6.75H6.25V5.25H4.75ZM9.25 4.5C9.25 4.08579 9.58579 3.75 10 3.75H13C13.4142 3.75 13.75 4.08579 13.75 4.5C13.75 4.91421 13.4142 5.25 13 5.25H10C9.58579 5.25 9.25 4.91421 9.25 4.5ZM9.25 7.5C9.25 7.08579 9.58579 6.75 10 6.75H13C13.4142 6.75 13.75 7.08579 13.75 7.5C13.75 7.91421 13.4142 8.25 13 8.25H10C9.58579 8.25 9.25 7.91421 9.25 7.5ZM3.25 10.5C3.25 10.0858 3.58579 9.75 4 9.75H7C7.41421 9.75 7.75 10.0858 7.75 10.5V13.5C7.75 13.9142 7.41421 14.25 7 14.25H4C3.58579 14.25 3.25 13.9142 3.25 13.5V10.5ZM4.75 11.25V12.75H6.25V11.25H4.75ZM9.25 10.5C9.25 10.0858 9.58579 9.75 10 9.75H13C13.4142 9.75 13.75 10.0858 13.75 10.5C13.75 10.9142 13.4142 11.25 13 11.25H10C9.58579 11.25 9.25 10.9142 9.25 10.5ZM9.25 13.5C9.25 13.0858 9.58579 12.75 10 12.75H13C13.4142 12.75 13.75 13.0858 13.75 13.5C13.75 13.9142 13.4142 14.25 13 14.25H10C9.58579 14.25 9.25 13.9142 9.25 13.5Z" fill="#737373"/>
</svg>
