<svg width="14" height="14" viewBox="0 0 14 14" fill="none" xmlns="http://www.w3.org/2000/svg">
<path d="M7.72933 3.93766C7.72933 3.53496 7.40287 3.2085 7.00016 3.2085C6.59746 3.2085 6.271 3.53496 6.271 3.93766C6.271 4.34037 6.59746 4.66683 7.00016 4.66683C7.40287 4.66683 7.72933 4.34037 7.72933 3.93766Z" fill="#737373"/>
<path d="M5.97933 5.8335C5.97933 5.51133 6.2405 5.25016 6.56266 5.25016H7.146C7.46816 5.25016 7.72933 5.51133 7.72933 5.8335V9.3335H8.16683C8.489 9.3335 8.75016 9.59466 8.75016 9.91683C8.75016 10.239 8.489 10.5002 8.16683 10.5002H6.12516C5.803 10.5002 5.54183 10.239 5.54183 9.91683C5.54183 9.59466 5.803 9.3335 6.12516 9.3335H6.56266V6.41683C6.2405 6.41683 5.97933 6.15566 5.97933 5.8335Z" fill="#737373"/>
<path fill-rule="evenodd" clip-rule="evenodd" d="M7.00016 0.583496C5.22842 0.583496 3.62346 1.30235 2.4629 2.46289C1.30235 3.62345 0.583496 5.22842 0.583496 7.00016C0.583496 8.7719 1.30235 10.3769 2.46289 11.5374C3.62345 12.698 5.22842 13.4168 7.00016 13.4168C8.7719 13.4168 10.3769 12.698 11.5374 11.5374C12.698 10.3769 13.4168 8.7719 13.4168 7.00016C13.4168 5.22842 12.698 3.62346 11.5374 2.4629C10.3769 1.30235 8.7719 0.583496 7.00016 0.583496ZM3.28785 3.28785C4.23857 2.33715 5.55027 1.75016 7.00016 1.75016C8.45006 1.75016 9.76176 2.33715 10.7125 3.28785C11.6632 4.23857 12.2502 5.55027 12.2502 7.00016C12.2502 8.45006 11.6632 9.76176 10.7125 10.7125C9.76176 11.6632 8.45006 12.2502 7.00016 12.2502C5.55027 12.2502 4.23857 11.6632 3.28785 10.7125C2.33715 9.76176 1.75016 8.45006 1.75016 7.00016C1.75016 5.55027 2.33714 4.23857 3.28785 3.28785Z" fill="#737373"/>
</svg>
