<svg width="68" height="68" viewBox="0 0 68 68" fill="none" xmlns="http://www.w3.org/2000/svg">
<g filter="url(#filter0_d)">
<circle cx="34" cy="32" r="26" fill="#2D368B"/>
<path fill-rule="evenodd" clip-rule="evenodd" d="M23 41.9999V32C23 25.9249 27.9249 21 34 21C40.0751 21 45 25.9249 45 32C45 38.0751 40.0751 43 34 43H24.0001C23.4478 43 23 42.5522 23 41.9999ZM29 28C28.4477 28 28 28.4477 28 29C28 29.5523 28.4477 30 29 30H38C38.5523 30 39 29.5523 39 29C39 28.4477 38.5523 28 38 28H29ZM29 32C28.4477 32 28 32.4477 28 33C28 33.5523 28.4477 34 29 34H38C38.5523 34 39 33.5523 39 33C39 32.4477 38.5523 32 38 32H29ZM28 37C28 36.4477 28.4477 36 29 36H34C34.5523 36 35 36.4477 35 37C35 37.5523 34.5523 38 34 38H29C28.4477 38 28 37.5523 28 37Z" fill="white"/>
</g>
<defs>
<filter id="filter0_d" x="0" y="0" width="68" height="68" filterUnits="userSpaceOnUse" color-interpolation-filters="sRGB">
<feFlood flood-opacity="0" result="BackgroundImageFix"/>
<feColorMatrix in="SourceAlpha" type="matrix" values="0 0 0 0 0 0 0 0 0 0 0 0 0 0 0 0 0 0 127 0"/>
<feOffset dy="2"/>
<feGaussianBlur stdDeviation="4"/>
<feColorMatrix type="matrix" values="0 0 0 0 0 0 0 0 0 0 0 0 0 0 0 0 0 0 0.25 0"/>
<feBlend mode="normal" in2="BackgroundImageFix" result="effect1_dropShadow"/>
<feBlend mode="normal" in="SourceGraphic" in2="effect1_dropShadow" result="shape"/>
</filter>
</defs>
</svg>
