<svg width="20" height="20" viewBox="0 0 20 20" fill="none" xmlns="http://www.w3.org/2000/svg">
<path d="M1.6665 2.49984C1.6665 2.0396 2.0396 1.6665 2.49984 1.6665H9.99638C10.4566 1.6665 10.8297 2.0396 10.8297 2.49984C10.8297 2.96007 10.4566 3.33317 9.99638 3.33317H3.33317V16.6665H9.99984C10.4601 16.6665 10.8332 17.0396 10.8332 17.4998C10.8332 17.9601 10.4601 18.3332 9.99984 18.3332H2.49984C2.0396 18.3332 1.6665 17.9601 1.6665 17.4998V2.49984Z" fill="#ED1C24"/>
<path d="M13.1606 5.66058C13.486 5.33514 14.0137 5.33514 14.3391 5.66058L18.0436 9.36506C18.2209 9.51788 18.3332 9.74412 18.3332 9.99658L18.3332 9.99811C18.3336 10.212 18.2523 10.4259 18.0891 10.5891L14.3391 14.3391C14.0137 14.6645 13.486 14.6645 13.1606 14.3391C12.8351 14.0137 12.8351 13.486 13.1606 13.1606L15.4912 10.8299H6.6665C6.20627 10.8299 5.83317 10.4568 5.83317 9.99658C5.83317 9.53634 6.20627 9.16325 6.6665 9.16325H15.4847L13.1606 6.83909C12.8351 6.51366 12.8351 5.98602 13.1606 5.66058Z" fill="#ED1C24"/>
</svg>
