<svg width="24" height="24" viewBox="0 0 24 24" fill="none" xmlns="http://www.w3.org/2000/svg">
<path fill-rule="evenodd" clip-rule="evenodd" d="M1 21.9999V12C1 5.92487 5.92487 1 12 1C18.0751 1 23 5.92487 23 12C23 18.0751 18.0751 23 12 23H2.00008C1.4478 23 1 22.5522 1 21.9999ZM7 8C6.44772 8 6 8.44772 6 9C6 9.55228 6.44772 10 7 10H16C16.5523 10 17 9.55228 17 9C17 8.44772 16.5523 8 16 8H7ZM7 12C6.44772 12 6 12.4477 6 13C6 13.5523 6.44772 14 7 14H16C16.5523 14 17 13.5523 17 13C17 12.4477 16.5523 12 16 12H7ZM6 17C6 16.4477 6.44772 16 7 16H12C12.5523 16 13 16.4477 13 17C13 17.5523 12.5523 18 12 18H7C6.44772 18 6 17.5523 6 17Z" fill="white"/>
</svg>
