<svg width="24" height="24" viewBox="0 0 24 24" fill="none" xmlns="http://www.w3.org/2000/svg">
<path fill-rule="evenodd" clip-rule="evenodd" d="M12 3C8.68629 3 6 5.68629 6 9V18H18V9C18 5.68629 15.3137 3 12 3ZM20 18V9C20 4.58172 16.4183 1 12 1C7.58172 1 4 4.58172 4 9V18H2C1.44772 18 1 18.4477 1 19C1 19.5523 1.44772 20 2 20H8.53545C8.77806 21.6961 10.2368 23 12 23C13.7632 23 15.2219 21.6961 15.4646 20H22C22.5523 20 23 19.5523 23 19C23 18.4477 22.5523 18 22 18H20ZM13.4146 20H10.5854C10.7913 20.5826 11.3469 21 12 21C12.6531 21 13.2087 20.5826 13.4146 20Z" fill="#2E3192"/>
</svg>
