<svg width="24" height="24" viewBox="0 0 24 24" fill="none" xmlns="http://www.w3.org/2000/svg">
<path d="M6 10C8.21663 10 13.3088 12.0785 14.3 13.4C14.6574 13.8766 14.7317 14.4338 14.5784 14.9802L16.4281 14.63L18.131 14.3245L18.6302 14.2399L19.4699 14.1079L19.9586 14.0426L20.2165 14.0154C20.3317 14.0052 20.4263 14 20.5 14C22.7155 14 22.7155 16.1987 21.2071 17.7071C18.9691 19.9451 15.74 22 13 22C11.7061 22 10.6445 21.7888 9.18287 21.321L7.97831 20.9245L7.64829 20.819L7.23909 20.695L7.01283 20.6329L6.72486 20.566L6.55646 20.5364L6.39836 20.5167L6.24322 20.5054L6.0837 20.5005L1 20.5C0.447715 20.5 0 20.0523 0 19.5C0 18.9872 0.38604 18.5645 0.883379 18.5067L1 18.5L6.12328 18.5006L6.3444 18.5059L6.55292 18.518L6.75687 18.5386L6.96429 18.5695L7.18321 18.6124L7.42166 18.6689L7.68768 18.7409L7.9893 18.8299L8.52603 18.9994L9.44123 19.3013C10.9148 19.7925 11.86 20 13 20C15.0457 20 17.9059 18.1799 19.7929 16.2929C19.8622 16.2236 19.9232 16.1563 19.9763 16.0925L20.009 16.05L19.3663 16.1469L18.2156 16.3405L16.0593 16.7329L15.176 16.8999L12.1961 17.4806L12.1747 17.4849C12.1463 17.4899 12.1179 17.4937 12.0894 17.4962L12.1961 17.4806C12.1469 17.4904 12.0972 17.4965 12.0474 17.4989C12.0233 17.5001 11.9992 17.5004 11.9753 17.4998C11.959 17.4993 11.9424 17.4985 11.9258 17.4972C11.8896 17.4946 11.854 17.4899 11.8187 17.4834C11.8154 17.4828 11.8125 17.4823 11.8095 17.4817C11.7675 17.4735 11.7266 17.4628 11.6865 17.4496L8.68377 16.4487C8.15983 16.274 7.87667 15.7077 8.05132 15.1838C8.21349 14.6973 8.71338 14.4183 9.20346 14.5208L9.31623 14.5513L11.8196 15.387C11.9213 15.3035 12.0296 15.2089 12.1369 15.1068C12.3669 14.8877 12.5345 14.6819 12.6136 14.5317L12.621 14.513L12.5538 14.4495C12.2211 14.1621 11.5187 13.7807 10.6787 13.4047L10.16 13.1805C9.89423 13.0695 9.62025 12.9608 9.34431 12.8571L8.79168 12.657C7.78054 12.3051 6.79916 12.0437 6.15617 12.005L6 12C4.63416 12 2.95428 12.9599 1.70711 14.2071C1.31658 14.5976 0.683418 14.5976 0.292893 14.2071C-0.0976311 13.8166 -0.0976311 13.1834 0.292893 12.7929C1.87905 11.2067 3.99084 10 6 10ZM20 2C21.0544 2 21.9182 2.81587 21.9945 3.85074L22 4V12C22 12.5523 21.5523 13 21 13C20.4872 13 20.0645 12.614 20.0067 12.1166L20 12V4H17.5V7.5C17.5 8.01284 17.114 8.43551 16.6166 8.49327L16.5 8.5H11.5C10.9477 8.5 10.5 8.05228 10.5 7.5V4H8V8C8 8.55228 7.55228 9 7 9C6.48716 9 6.06449 8.61396 6.00673 8.11662L6 8V4C6 2.94564 6.81587 2.08183 7.85074 2.00549L8 2H20ZM15.5 4H12.5V6.5H15.5V4Z" fill="#292929"/>
</svg>
