<svg width="18" height="18" viewBox="0 0 18 18" fill="none" xmlns="http://www.w3.org/2000/svg">
<path fill-rule="evenodd" clip-rule="evenodd" d="M0.75 7.875C0.75 3.93999 3.93999 0.75 7.875 0.75C11.81 0.75 15 3.93999 15 7.875C15 9.57235 14.4065 11.1311 13.4156 12.355L16.1705 15.1098C16.4634 15.4027 16.4634 15.8776 16.1705 16.1705C15.8776 16.4634 15.4027 16.4634 15.1098 16.1705L12.355 13.4156C11.1311 14.4065 9.57235 15 7.875 15C3.93999 15 0.75 11.81 0.75 7.875ZM7.875 2.25C4.76841 2.25 2.25 4.76841 2.25 7.875C2.25 10.9816 4.76841 13.5 7.875 13.5C10.9816 13.5 13.5 10.9816 13.5 7.875C13.5 4.76841 10.9816 2.25 7.875 2.25ZM5.22335 4.84831C5.90117 4.17054 6.83969 3.75 7.875 3.75C8.91031 3.75 9.84884 4.17054 10.5266 4.84833C10.8195 5.14123 10.8195 5.6161 10.5266 5.90899C10.2337 6.20189 9.75886 6.20189 9.46597 5.90899C9.05799 5.50101 8.49652 5.25 7.875 5.25C7.25349 5.25 6.692 5.50101 6.28397 5.90901C5.99107 6.20189 5.5162 6.20188 5.22331 5.90897C4.93043 5.61607 4.93045 5.1412 5.22335 4.84831Z" fill="#737373"/>
</svg>
