<svg width="20" height="20" viewBox="0 0 20 20" fill="none" xmlns="http://www.w3.org/2000/svg">
<path d="M10 8.3335C10.4602 8.3335 10.8333 8.70659 10.8333 9.16683V11.6668C10.8333 12.1271 10.4602 12.5002 10 12.5002H7.5C7.03976 12.5002 6.66667 12.1271 6.66667 11.6668C6.66667 11.2066 7.03976 10.8335 7.5 10.8335H9.16667V9.16683C9.16667 8.70659 9.53976 8.3335 10 8.3335Z" fill="#2D368B"/>
<path fill-rule="evenodd" clip-rule="evenodd" d="M8.33333 0.833496C7.8731 0.833496 7.5 1.20659 7.5 1.66683C7.5 2.12707 7.8731 2.50016 8.33333 2.50016H9.16667V4.2126C5.41671 4.62714 2.5 7.80637 2.5 11.6668C2.5 15.809 5.85786 19.1668 10 19.1668C14.1421 19.1668 17.5 15.809 17.5 11.6668C17.5 9.78965 16.8104 8.07355 15.6706 6.75806L16.4226 6.00608C16.748 5.68065 16.748 5.15301 16.4226 4.82757C16.0972 4.50214 15.5695 4.50214 15.2441 4.82757L14.4457 5.62591C13.4123 4.86405 12.1762 4.36105 10.8333 4.2126V2.50016H11.6667C12.1269 2.50016 12.5 2.12707 12.5 1.66683C12.5 1.20659 12.1269 0.833496 11.6667 0.833496H8.33333ZM4.16667 11.6668C4.16667 8.44517 6.77834 5.8335 10 5.8335C13.2217 5.8335 15.8333 8.44517 15.8333 11.6668C15.8333 14.8885 13.2217 17.5002 10 17.5002C6.77834 17.5002 4.16667 14.8885 4.16667 11.6668Z" fill="#2D368B"/>
</svg>
