<svg width="36" height="25" viewBox="0 0 36 25" fill="none" xmlns="http://www.w3.org/2000/svg">
<path fill-rule="evenodd" clip-rule="evenodd" d="M14.9173 1.05417C14.6905 1.10902 14.3981 1.30197 14.2782 1.47591C14.2006 1.58856 14.1913 2.16262 14.168 8.32521L14.1425 15.0515L14.0279 15.0683L13.9133 15.085V10.3149V5.5449L10.8947 5.5628C7.95006 5.58034 7.86901 5.58353 7.58407 5.69356C7.21343 5.83672 6.89644 6.0606 6.6462 6.35594C6.52494 6.4991 5.44091 8.53925 3.81552 11.6834C2.36676 14.486 1.141 16.8732 1.09163 16.9883C1.02499 17.1437 1.00141 17.3396 1.00013 17.7473C0.998502 18.2586 1.00976 18.3215 1.16092 18.6494C1.46359 19.3059 1.88726 19.7012 2.49759 19.8963C2.78778 19.9891 2.97588 19.9982 4.61645 19.9982H6.41684L6.4496 20.2991C6.60931 21.7666 7.36327 22.9264 8.56728 23.5567C10.7064 24.6765 13.274 23.591 14.0377 21.2439C14.1099 21.0221 14.1835 20.6629 14.2014 20.4456L14.2339 20.0505H19.7464H25.2588L25.3203 20.5017C25.5979 22.5409 27.1952 23.9859 29.1717 23.9859C29.8574 23.9859 30.362 23.8633 30.9803 23.5466C31.3283 23.3683 31.5096 23.2269 31.9041 22.8262C32.3439 22.3793 32.4217 22.2704 32.6528 21.7779C32.9055 21.2391 33.069 20.6338 33.069 20.2371V20.0528L34.0243 20.0386L34.9795 20.0243L34.9952 18.009C35.0129 15.723 34.9947 15.5417 34.7189 15.2584C34.5656 15.1009 34.5106 15.0777 34.2901 15.0777H34.037V8.42822C34.037 1.15812 34.0545 1.57223 33.7359 1.29673C33.3699 0.980307 33.8967 0.996429 24.0805 1.00214C19.0164 1.00512 15.0263 1.02778 14.9173 1.05417ZM33.4511 1.28935C33.5632 1.34944 33.7065 1.47659 33.7696 1.57191L33.8842 1.74523V8.3853V15.0254H24.1025H14.3208V8.3506V1.67587L14.4864 1.49125C14.8067 1.1341 14.1215 1.15697 24.1535 1.16912L33.2474 1.18011L33.4511 1.28935ZM23.525 2.62106C21.7567 2.90781 20.308 3.95267 19.5135 5.51428C19.0932 6.34028 18.9056 7.14247 18.9067 8.1085C18.909 10.2227 20.0414 12.0864 21.8864 13.0122C23.5393 13.8418 25.362 13.7752 26.9758 12.8265C28.0351 12.2038 28.9495 11.0392 29.3464 9.80731C29.6467 8.87541 29.6794 7.66655 29.4311 6.68006C28.9299 4.68895 27.3356 3.1297 25.3524 2.69121C24.9122 2.59384 23.9263 2.556 23.525 2.62106ZM25.4426 5.12311C26.8508 5.83573 27.0299 7.70445 25.7794 8.63635L25.5967 8.77245L25.9079 9.37326C26.0791 9.70372 26.3501 10.2259 26.5102 10.5337C26.8918 11.2673 26.9006 11.2565 25.9172 11.2565C25.4159 11.2565 25.1658 11.2363 25.1075 11.1911C25.0611 11.1551 24.7986 10.6899 24.5241 10.1573L24.025 9.1889L23.6817 9.17341L23.3383 9.15797V10.106C23.3383 10.6594 23.3164 11.0962 23.2856 11.1553C23.2373 11.2478 23.1727 11.2565 22.5316 11.2565C22.0541 11.2565 21.8108 11.2365 21.7692 11.1937C21.6787 11.1008 21.6811 5.0762 21.7717 4.98261C21.8209 4.93178 22.2072 4.92042 23.467 4.93288L25.0985 4.94895L25.4426 5.12311ZM13.7604 10.4378V15.1675L14.0788 15.2018C14.254 15.2207 18.907 15.2351 24.4188 15.2337C32.4922 15.2317 34.4609 15.2443 34.5458 15.2984C34.6038 15.3354 34.6964 15.4614 34.7517 15.5785C34.8465 15.7792 34.8522 15.9077 34.8522 17.8424V19.8935H33.9676H33.0831L33.0493 19.5544C33.0037 19.0976 32.8472 18.5925 32.5947 18.0876C32.2972 17.4925 31.6283 16.8095 31.0343 16.4942C30.3886 16.1515 30.0812 16.0679 29.3481 16.0353C28.8054 16.0111 28.6445 16.0235 28.2782 16.1176C26.6421 16.5377 25.5133 17.8738 25.2982 19.6448L25.268 19.8935H19.7435H14.2189L14.2186 19.6972C14.2181 19.4365 14.0494 18.7282 13.9102 18.4016C13.4849 17.4048 12.5725 16.5553 11.5443 16.1987C10.9575 15.9952 10.0413 15.9601 9.42812 16.1176C8.26017 16.4174 7.34834 17.1813 6.82267 18.3002C6.64808 18.6719 6.58455 18.9098 6.44206 19.7257L6.42107 19.8459L4.52367 19.8304L2.62623 19.815L2.29177 19.6457C1.88135 19.438 1.47765 19.0151 1.29165 18.5981C1.11716 18.2069 1.07344 17.5607 1.19551 17.1773C1.24085 17.0349 2.47594 14.6022 3.94019 11.7712C6.80107 6.2401 6.79032 6.25847 7.33234 5.97434C7.81506 5.7213 7.90034 5.71508 10.9202 5.71141L13.7604 5.70796V10.4378ZM23.3383 7.02318V7.81495L23.9153 7.79223C24.4041 7.77302 24.5161 7.75214 24.6477 7.65582C25.1062 7.32045 25.0461 6.56233 24.5416 6.31636C24.4165 6.25543 24.222 6.23141 23.8528 6.23141H23.3383V7.02318ZM8.69683 7.55239C8.2695 7.66854 8.11712 7.90278 6.83546 10.414C5.76636 12.5087 5.65208 12.7569 5.67827 12.9265C5.69651 13.0444 5.76544 13.1685 5.8628 13.2587L6.01823 13.4027H9.14603H12.2738L12.3024 12.9708C12.3295 12.5625 12.4379 8.35065 12.4365 7.7625L12.4358 7.48769L10.6654 7.49308C9.63226 7.49627 8.81253 7.52093 8.69683 7.55239ZM12.2655 9.07113C12.2469 9.85567 12.2167 11.1159 12.1983 11.8716L12.1648 13.2456H9.09442H6.02399L5.91843 13.1077C5.86035 13.0319 5.81282 12.9207 5.81282 12.8607C5.81282 12.7164 8.12934 8.18539 8.30231 7.99146C8.6006 7.65697 8.66504 7.64713 10.5717 7.64587L12.2993 7.64472L12.2655 9.07113Z" fill="#2E3192" stroke="#2E3192"/>
</svg>
