<svg width="15" height="18" viewBox="0 0 15 18" fill="none" xmlns="http://www.w3.org/2000/svg">
<path d="M7.5 7.5C7.91421 7.5 8.25 7.83579 8.25 8.25V10.5C8.25 10.9142 7.91421 11.25 7.5 11.25H5.25C4.83579 11.25 4.5 10.9142 4.5 10.5C4.5 10.0858 4.83579 9.75 5.25 9.75H6.75V8.25C6.75 7.83579 7.08579 7.5 7.5 7.5Z" fill="#292929"/>
<path fill-rule="evenodd" clip-rule="evenodd" d="M6 0.75C5.58579 0.75 5.25 1.08579 5.25 1.5C5.25 1.91421 5.58579 2.25 6 2.25H6.75V3.7912C3.37504 4.16428 0.75 7.02558 0.75 10.5C0.75 14.2279 3.77208 17.25 7.5 17.25C11.2279 17.25 14.25 14.2279 14.25 10.5C14.25 8.81054 13.6293 7.26605 12.6035 6.08211L13.2803 5.40533C13.5732 5.11244 13.5732 4.63756 13.2803 4.34467C12.9874 4.05178 12.5126 4.05178 12.2197 4.34467L11.5012 5.06317C10.571 4.3775 9.4586 3.9248 8.25 3.7912V2.25H9C9.41421 2.25 9.75 1.91421 9.75 1.5C9.75 1.08579 9.41421 0.75 9 0.75H6ZM2.25 10.5C2.25 7.6005 4.6005 5.25 7.5 5.25C10.3995 5.25 12.75 7.6005 12.75 10.5C12.75 13.3995 10.3995 15.75 7.5 15.75C4.6005 15.75 2.25 13.3995 2.25 10.5Z" fill="#292929"/>
</svg>
